# xmcd
#
# Track frame offsets:
#	150
#	15341
#	30702
#	45460
#	56762
#	73033
#	91241
#	105793
#	120955
#	136428
#	151208
#	169205
#	186432
#	202172
#	215343
#	230346
#	249258
#
# Disc length: 3523 seconds
#
# Revision: 4
# Processed by: cddbd v1.5.1PL0 Copyright (c) Steve Scherf et al.
# Submitted via: EasyCDDAExtractor 8.0.1.1
#
DISCID=dc0dc111
DTITLE=Bellamy Brothers - Let Your Love Flow (20 Years Of Hits) - Disk 2
DYEAR=1994
DGENRE=Country
TTITLE0=I Need More Of You
TTITLE1=I'd Lie To You For Your Love
TTITLE2=Big Love
TTITLE3=Country Rap
TTITLE4=Santa Fe
TTITLE5=I'll Give You All My Love Tonight
TTITLE6=Rebels Without A Clue
TTITLE7=You'll Never Be Sorry
TTITLE8=Cowboy Beat
TTITLE9=Can I Come On Home To You
TTITLE10=She's Gone With The Wind
TTITLE11=Hard Way To Make An Easy Livin'
TTITLE12=Rip Off The Knob
TTITLE13=Not
TTITLE14=On A Summer Night
TTITLE15=Hemmingway Hideaway
TTITLE16=Nobody's Perfect
EXTD=
EXTT0=
EXTT1=
EXTT2=
EXTT3=
EXTT4=
EXTT5=
EXTT6=
EXTT7=
EXTT8=
EXTT9=
EXTT10=
EXTT11=
EXTT12=
EXTT13=
EXTT14=
EXTT15=
EXTT16=
PLAYORDER=
